# xmcd
#
# Track frame offsets:
#  150
#  13557
#  20215
#  33190
#  44270
#  56270
#  70250
#  83280
#  100067
#  113775
#  126252
#
# Disc length: 1907 seconds
#
# Revision: 0
# Processed by: cddbd v1.5.1PL0 Copyright (c) Steve Scherf et al.
# Submitted via: Collectorz.com Music Collector 6.9
#
DISCID=8007710b
DTITLE=Happy and Artie Traum - Hard Times In The Country
DYEAR=1900
DGENRE=
TTITLE0=Penny's Farm
TTITLE1=No Depression Blues
TTITLE2=Gambler's Song
TTITLE3=Blow Your Whistle, Freight Train
TTITLE4=Masanga
TTITLE5=Mississippi John
TTITLE6=Freight Train Blues
TTITLE7=Earl's Crab Shack
TTITLE8=Sam's Song
TTITLE9=Gold Hill
TTITLE10=I Bid You Goodnight
EXTD=
EXTT0=
EXTT1=
EXTT2=
EXTT3=
EXTT4=
EXTT5=
EXTT6=
EXTT7=
EXTT8=
EXTT9=
EXTT10=
PLAYORDER=
